<svg width="35" height="35" viewBox="0 0 35 35" fill="none" xmlns="http://www.w3.org/2000/svg">
<rect width="35" height="35" rx="6" fill="#F55A5A"/>
<path fill-rule="evenodd" clip-rule="evenodd" d="M25.8649 22.2C25.7357 22.0799 25.6376 21.9553 25.6044 21.84C25.4739 21.383 25.646 20.0548 25.9048 19.6401C26.1628 19.2239 25.877 17.975 25.7926 17.7683C25.7058 17.5604 25.6767 17.2906 25.3805 17.3724C25.0826 17.4558 24.4132 17.4247 23.8078 17.3002C23.2008 17.1768 22.6723 16.5921 22.5514 15.9328C22.416 15.1937 22.416 14.4757 22.5888 14.0255C22.782 13.5194 23.2577 13.3278 23.6932 13.0892C23.8938 12.9798 24.8644 12.825 24.8279 12.358C24.6023 11.9278 22.5418 12.4171 22.4592 11.7486C22.3756 11.0789 22.3461 10.7428 22.6075 10.204C22.8817 9.64207 22.5664 9.7171 22.4907 9.03583C22.4804 8.93884 22.6952 8.6882 22.7122 8.6C23.4231 9.0043 24.0908 9.48762 24.6899 10.0631C26.5667 11.8667 27.6 14.2645 27.6 16.8152C27.6 18.7669 26.9905 20.6255 25.8649 22.2M21.4437 21.8971C21.034 22.5476 21.1325 23.0268 20.1978 23.5241C19.6772 23.8014 19.3068 23.88 19.0314 24.6248C18.7548 25.368 18.2962 25.3418 17.1513 25.9456C16.0047 26.5509 15.5493 25.9456 15.4559 25.4813C15.3629 25.017 15.6455 23.9203 15.6455 23.9203C15.6455 23.9203 15.7575 23.5927 14.9452 23.2227C12.891 22.2872 14.6634 19.0029 14.6634 19.0029C14.1993 18.4596 13.0205 17.394 11.3748 17.045C9.80148 16.7121 9.3528 15.7887 8.8 14.867C9.20457 13.1606 10.0546 11.5924 11.3097 10.3188C13.1048 8.49786 15.4909 7.4 18.0315 7.4C18.0315 7.4 18.8883 7.4 19.6971 7.6124C18.9575 8.42653 18.1301 9.24952 17.5153 9.47643C16.4085 9.88752 15.8954 10.561 15.8907 11.2784C15.8883 11.65 16.6577 12.3235 16.6577 13.1755C16.6577 14.6236 15.595 14.657 15.471 14.0468C15.1912 12.6628 14.121 13.0203 12.8393 13.1589C11.5557 13.2988 10.7779 14.8102 11.6022 15.4147C12.428 16.0193 12.3855 15.2237 12.703 14.9968C13.0189 14.7695 13.2423 14.6796 13.4823 14.9968C13.7204 15.314 14.2366 15.4865 14.1869 16.1374C14.1436 16.7879 14.0045 17.3448 14.8769 17.3448C15.748 17.3448 15.7782 17.5391 16.331 17.8176C16.8782 18.0965 17.3965 18.0441 17.8531 18.1376C18.3117 18.2299 18.9126 19.1279 18.9126 19.1279C20.2125 19.5539 20.6401 19.728 20.999 20.0907C21.3567 20.4534 21.8582 21.2462 21.4437 21.8971M17.9986 5H17.9954H17.9922C13.2315 5 9.13019 7.7812 7.19038 11.8C6.43014 13.3748 6 15.1344 6 17C5.9992 23.6264 11.3653 29 17.9938 29H17.997H18.0002C24.6263 29 30.0008 23.6264 30 17.0016C30.0008 10.314 24.5467 5 17.9986 5" fill="white"/>
</svg>
